<?xml version="1.0" standalone="no"?>
<!DOCTYPE svg PUBLIC "-//W3C//DTD SVG 1.1//EN" "http://www.w3.org/Graphics/SVG/1.1/DTD/svg11.dtd" >
<svg>
<metadata>
Created by FontForge 20090914 at Thu Feb 23 21:24:22 2012
 By root
Copyright (c) 1992, 1993, Thomas E. Harvey. All rights reserved.
</metadata>
<defs>
<font id="Mottek-Normal" horiz-adv-x="255" >
  <font-face 
    font-family="Mottek"
    font-weight="400"
    font-stretch="normal"
    units-per-em="1000"
    panose-1="0 0 0 0 0 0 0 0 0 0"
    ascent="800"
    descent="-200"
    x-height="585"
    cap-height="765"
    bbox="-13 -179 1479 854"
    underline-thickness="50"
    underline-position="-75"
    unicode-range="U+0020-U+2122"
  />
<missing-glyph horiz-adv-x="801" 
d="M50 0v801h701v-801h-701zM701 50v701h-601v-701h601z" />
    <glyph glyph-name=".notdef" horiz-adv-x="801" 
d="M50 0v801h701v-801h-701zM701 50v701h-601v-701h601z" />
    <glyph glyph-name=".null" horiz-adv-x="0" 
 />
    <glyph glyph-name="nonmarkingreturn" horiz-adv-x="439" 
 />
    <glyph glyph-name="space" unicode=" " horiz-adv-x="439" 
 />
    <glyph glyph-name="exclam" unicode="!" 
d="M0 0h179v179h-179v-179zM0 765q0 -111 7 -194.5t15 -166t8 -149.5h119q0 78 7 155l15 167t8 188h-179z" />
    <glyph glyph-name="quotedbl" unicode="&#x22;" horiz-adv-x="507" 
d="M0 765v-179h76q0 -44 -11.5 -88.5t-34.5 -90.5h105q28 28 38 84q6 35 6 95v179h-179zM254 765v-179h75q0 -89 -46 -179h106q28 28 38 84q6 35 6 95v179h-179z" />
    <glyph glyph-name="numbersign" unicode="#" horiz-adv-x="763" 
d="M692 565l-17 -123h-63l-17 -111h63l-17 -123h-63l-23 -160h-217l23 160h-71l-23 -160h-217l23 160h-63l17 123h63l17 111h-63l17 123h63l25 168h217l-25 -168h71l25 168h217l-25 -168h63zM395 442h-71l-17 -111h71z" />
    <glyph glyph-name="dollar" unicode="$" horiz-adv-x="589" 
d="M0 179v-179h46v-90h89v90h44q167 0 259 106q73 84 73 183v13q-2 9 -2 13q-14 88 -50 146q-42 69 -129 124q-60 38 -97.5 91t-37.5 89h-60v89h-89v-89h-46q0 -104 51 -185q42 -66 128 -130q53 -32 82 -78q26 -42 26 -87q0 -46 -28 -76t-80 -30h-179z" />
    <glyph glyph-name="percent" unicode="%" horiz-adv-x="1141" 
d="M696 763l-434 -765h120l433 765h-119zM844 420q-99 0 -168 -63t-69 -151q0 -89 69 -151t168 -62q96 0 165.5 62.5t69.5 150.5t-69 151t-166 63zM844 304q46 0 77.5 -28.5t31.5 -69.5t-32 -70t-77 -29q-46 0 -78.5 29t-32.5 70q0 40 32.5 69t78.5 29zM229 765
q-100 0 -169 -63t-69 -152q0 -87 69 -149t169 -62q97 0 166 62t69 149q0 89 -69 152t-166 63zM229 649q44 0 76 -29t32 -70q0 -40 -32 -69t-76 -29q-47 0 -79 28t-32 70q0 41 32 70t79 29z" />
    <glyph glyph-name="ampersand" unicode="&#x26;" horiz-adv-x="949" 
d="M195 765h-195q0 -92 21 -145q27 -69 99 -111q-54 -19 -87.5 -85.5t-33.5 -148.5q0 -114 61 -188q72 -87 207 -87h378v420h196v179h-196v166h-179v-586h-155q-64 0 -99.5 35.5t-35.5 84.5q0 50 33 83q38 38 102 38h95v179h-91q-54 0 -87 30t-33 76v60z" />
    <glyph glyph-name="quotesingle" unicode="'" 
d="M0 808v-179h76q0 -44 -11.5 -88.5t-34.5 -90.5h105q28 28 38 84q6 35 6 95v179h-179z" />
    <glyph glyph-name="parenleft" unicode="(" horiz-adv-x="457" 
d="M373 854h-150q-105 0 -168 -148q-57 -134 -57 -324q0 -192 56 -324q63 -148 169 -148h150v180h-60q-53 0 -82.5 86t-29.5 206q0 119 29.5 206t82.5 87h60v179z" />
    <glyph glyph-name="parenright" unicode=")" horiz-adv-x="457" 
d="M0 854v-179h59q53 0 85 -91q28 -81 28 -202q0 -119 -28 -201q-31 -91 -85 -91h-59v-180h149q107 0 169 147q56 132 56 325q0 192 -56 324q-63 148 -169 148h-149z" />
    <glyph glyph-name="asterisk" unicode="*" horiz-adv-x="360" 
d="M-13 608l94 -18l-62 -66l84 -61l45 79l47 -79l87 61l-68 66l92 18l-32 91l-91 -42l19 104h-110l19 -104l-92 49z" />
    <glyph glyph-name="plus" unicode="+" horiz-adv-x="439" 
d="M0 179h90v-89h181v89h89v181h-89v90h-181v-90h-90v-181z" />
    <glyph glyph-name="comma" unicode="," 
d="M0 179v-179h76q0 -44 -11.5 -88.5t-34.5 -90.5h105q28 28 38 84q6 35 6 95v179h-179z" />
    <glyph glyph-name="hyphen" unicode="-" horiz-adv-x="439" 
d="M0 179h360v181h-360v-181z" />
    <glyph glyph-name="period" unicode="." 
d="M0 179v-179h179v179h-179z" />
    <glyph glyph-name="slash" unicode="/" horiz-adv-x="616" 
d="M540 765l-27 -46l-513 -898h120l26 46l513 898h-119z" />
    <glyph glyph-name="zero" unicode="0" horiz-adv-x="791" 
d="M358 616q-148 0 -253 -95t-105 -229t104 -228t254 -94q148 0 253.5 94.5t105.5 227.5t-105.5 228.5t-253.5 95.5zM358 441q69 0 117.5 -43.5t48.5 -105.5q0 -63 -48.5 -106.5t-117.5 -43.5q-68 0 -117 44t-49 106q0 61 49 105t117 44z" />
    <glyph glyph-name="one" unicode="1" horiz-adv-x="439" 
d="M360 585h-360v-151h179v-434h181v585z" />
    <glyph glyph-name="two" unicode="2" horiz-adv-x="624" 
d="M540 -179v179h-210q91 63 141 154q46 85 46 174q0 109 -64 181q-68 76 -182 76h-271v-181h135q79 0 121 -31q38 -28 38 -78q0 -94 -115 -190q-28 -24 -65 -46q-12 -7 -114 -59v-179h540z" />
    <glyph glyph-name="three" unicode="3" horiz-adv-x="598" 
d="M391 526q57 35 76 90q13 37 13 108v41h-188q0 -99 -28 -139.5t-85 -40.5h-179v-181h179q66 0 107 -38q37 -34 37 -82q0 -44 -32.5 -74.5t-95.5 -30.5h-195v-179h195q158 0 250 88q83 80 83 196q0 71 -35 136t-102 106z" />
    <glyph glyph-name="four" unicode="4" horiz-adv-x="616" 
d="M330 585l-328 -404v-179h358v-181h180v358h-315l330 406h-225z" />
    <glyph glyph-name="five" unicode="5" horiz-adv-x="589" 
d="M179 585v180h-179v-361h179q66 0 107 -38q37 -34 37 -82q0 -44 -32.5 -74.5t-95.5 -30.5h-195v-179h195q153 0 243 90q81 81 81 199q0 120 -84 203q-94 93 -256 93z" />
    <glyph glyph-name="six" unicode="6" horiz-adv-x="791" 
d="M356 -30q147 0 253 95t106 228q0 122 -90 213t-223 106l103 153h-240l-210 -285q-30 -41 -43.5 -90.5t-13.5 -96.5q0 -133 105 -228t253 -95zM356 144q-69 0 -116.5 43.5t-47.5 105.5q0 61 48.5 105.5t115.5 44.5q69 0 118.5 -44.5t49.5 -105.5q0 -62 -49.5 -105.5
t-118.5 -43.5z" />
    <glyph glyph-name="seven" unicode="7" horiz-adv-x="616" 
d="M540 585h-540v-181h315l-322 -583h209l338 583v181z" />
    <glyph glyph-name="eight" unicode="8" horiz-adv-x="800" 
d="M599 533q51 43 79 103t28 129l-189 2q0 -62 -48 -106t-117 -44t-118.5 44.5t-49.5 105.5l-188 -2q0 -71 29.5 -131t86.5 -107q-52 -44 -82 -105.5t-30 -129.5q0 -134 104 -228t254 -94q148 0 253.5 94.5t105.5 227.5q0 70 -31 131.5t-87 109.5zM358 441q69 0 117.5 -43.5
t48.5 -105.5q0 -63 -48.5 -106.5t-117.5 -43.5q-68 0 -117 44t-49 106q0 61 49 105t117 44z" />
    <glyph glyph-name="nine" unicode="9" horiz-adv-x="800" 
d="M358 616q-148 0 -253 -95t-105 -229q0 -122 90 -213t223 -107l-104 -151h241l209 284q31 41 46 97q12 44 12 90q0 133 -105.5 228.5t-253.5 95.5zM358 441q69 0 117.5 -43.5t48.5 -105.5q0 -63 -48.5 -106.5t-117.5 -43.5q-68 0 -117 44t-49 106q0 61 49 105t117 44z" />
    <glyph glyph-name="colon" unicode=":" 
d="M0 583v-179h179v179h-179zM0 179v-179h179v179h-179z" />
    <glyph glyph-name="semicolon" unicode=";" 
d="M0 179v-179h76q0 -44 -11.5 -88.5t-34.5 -90.5h105q28 28 38 84q6 35 6 95v179h-179zM0 583v-179h179v179h-179z" />
    <glyph glyph-name="less" unicode="&#x3c;" horiz-adv-x="234" 
d="M-1 380l168 -225v450z" />
    <glyph glyph-name="equal" unicode="=" horiz-adv-x="439" 
d="M360 329h-360v181h360v-181zM360 49h-360v181h360v-181z" />
    <glyph glyph-name="greater" unicode="&#x3e;" horiz-adv-x="234" 
d="M167 380l-168 -225v450z" />
    <glyph glyph-name="question" unicode="?" horiz-adv-x="553" 
d="M59 0h182v179h-182v-179zM59 255h182q106 0 168 79q56 72 56 176t-55 175q-62 80 -169 80h-241v-180h179q48 0 75 -22.5t27 -53.5q0 -30 -27 -52.5t-75 -22.5h-120v-179z" />
    <glyph glyph-name="at" unicode="@" horiz-adv-x="619" 
d="M335 418q0 27 -17.5 46.5t-41.5 19.5q-45 0 -77 -45.5t-32 -94.5q0 -30 17 -50t44 -20q43 0 75 48.5t32 95.5zM357 481l15 44h49q-8 -30 -43 -148q-22 -75 -22 -87q0 -21 15 -21q37 0 69.5 48.5t32.5 107.5q0 84 -57.5 134.5t-142.5 50.5q-96 0 -157.5 -66t-61.5 -164
q0 -96 64 -160t159 -64q51 0 97.5 22t78.5 60h47q-34 -59 -94 -93t-130 -34q-115 0 -195 79t-80 194q0 113 80 192t192 79q101 0 174 -64t73 -161q0 -88 -62 -152q-54 -56 -110 -56q-20 0 -33 11.5t-13 34.5q-20 -21 -41.5 -33.5t-46.5 -12.5q-46 0 -76 33.5t-30 81.5
q0 77 47.5 138t118.5 61q56 0 83 -55z" />
    <glyph glyph-name="A" unicode="A" horiz-adv-x="852" 
d="M780 -179v599q0 137 -94 234q-108 111 -295 111q-190 0 -297 -110q-94 -97 -94 -235v-241h496v181h-317v60q0 93 57 142q51 44 130 44q88 0 158 -51q75 -55 75 -135v-599h181z" />
    <glyph glyph-name="B" unicode="B" horiz-adv-x="835" 
d="M0 765v-765h179v585h271q49 0 75 -24t26 -59q0 -33 -26.5 -57.5t-74.5 -24.5h-166v-179h166q65 0 101 -37q33 -33 33 -84q0 -49 -33 -82q-37 -38 -101 -38h-271v-179h317q132 0 204 85q62 74 62 185q0 83 -37 151.5t-96 87.5q57 19 90 74.5t33 123.5q0 97 -60 162
q-69 75 -196 75h-496z" />
    <glyph glyph-name="C" unicode="C" horiz-adv-x="756" 
d="M675 0v179h-266q-103 0 -163 61q-54 55 -54 135q0 85 57 144q64 66 171 66h255v180h-266q-191 0 -304 -119q-102 -108 -102 -262q0 -157 101 -264q113 -120 305 -120h266z" />
    <glyph glyph-name="D" unicode="D" horiz-adv-x="879" 
d="M271 0h129q192 0 305 120q102 108 102 264q0 155 -101 262q-113 119 -306 119h-400v-765h179v585h212q105 0 169 -66q58 -60 58 -144q0 -81 -53 -135q-60 -61 -165 -61h-129v-179z" />
    <glyph glyph-name="E" unicode="E" horiz-adv-x="756" 
d="M675 765h-404q-127 0 -197 -75q-61 -66 -61 -163q0 -68 32 -123t90 -74q-59 -19 -95.5 -87t-36.5 -152q0 -110 62 -184q73 -86 206 -86h404v179h-360q-64 0 -99.5 35.5t-35.5 84.5q0 50 33 83q38 38 102 38h360v179h-360q-48 0 -75 24t-27 58t25 57q29 26 77 26h360v180z
" />
    <glyph glyph-name="F" unicode="F" horiz-adv-x="756" 
d="M675 765h-404q-129 0 -204 -76q-67 -68 -67 -163v-705h179v358h496v179h-496v151q0 33 28 54.5t77 21.5h391v180z" />
    <glyph glyph-name="G" unicode="G" horiz-adv-x="879" 
d="M791 0v494h-175v-315h-212q-103 0 -163 61q-54 55 -54 135q0 85 57 144q64 66 171 66h380v180h-391q-191 0 -304 -119q-102 -108 -102 -262q0 -157 101 -264q113 -120 305 -120h387z" />
    <glyph glyph-name="H" unicode="H" horiz-adv-x="835" 
d="M179 301h391v-301h181v765h-181v-285h-391v285h-179v-765h179v301z" />
    <glyph glyph-name="I" unicode="I" 
d="M0 765v-765h179v765h-179z" />
    <glyph glyph-name="J" unicode="J" horiz-adv-x="527" 
d="M0 179v-179h179q111 0 191 76.5t80 178.5v510h-179v-450q0 -71 -59.5 -103.5t-211.5 -32.5z" />
    <glyph glyph-name="K" unicode="K" horiz-adv-x="817" 
d="M0 765v-765h179v271h241q64 0 101 -40q34 -37 34 -96v-314h179v358q0 77 -27 121q-32 53 -108 74q73 21 107 109q28 72 28 176v106h-179v-106q0 -97 -22 -143q-31 -66 -113 -66h-241v315h-179z" />
    <glyph glyph-name="L" unicode="L" horiz-adv-x="594" 
d="M509 0v179h-330v586h-179v-765h509z" />
    <glyph glyph-name="M" unicode="M" horiz-adv-x="1324" 
d="M751 585h93q113 0 149 -16q60 -27 60 -119v-450h181v540q0 113 -99 174q-83 51 -202 51h-182v-180zM0 765v-765h179v585h181q114 0 150 -16q60 -27 60 -119v-450h181v540q0 113 -100 174q-83 51 -201 51h-450z" />
    <glyph glyph-name="N" unicode="N" horiz-adv-x="839" 
d="M0 765v-765h179v585h181q114 0 150 -16q60 -27 60 -119v-450h181v540q0 113 -100 174q-83 51 -201 51h-450z" />
    <glyph glyph-name="O" unicode="O" horiz-adv-x="970" 
d="M450 780q-186 0 -318 -119t-132 -287q0 -167 131.5 -285.5t318.5 -118.5q186 0 318 118t132 286t-132 287t-318 119zM450 619q111 0 191 -72t80 -173q0 -100 -79.5 -172t-191.5 -72q-111 0 -192 72t-81 172q0 101 80 173t193 72z" />
    <glyph glyph-name="P" unicode="P" horiz-adv-x="905" 
d="M0 765v-46v-898h179v764h151q134 0 211 -63q70 -57 70 -140t-70 -140q-77 -63 -211 -63h-75v-179h75q222 0 357 123q122 111 122 269q0 153 -118 257q-132 116 -361 116h-330z" />
    <glyph glyph-name="Q" unicode="Q" horiz-adv-x="976" 
d="M450 780q-186 0 -318 -119t-132 -287q0 -167 131.5 -285.5t318.5 -118.5q66 0 129 17q35 -12 52 -43q14 -26 14 -64h196q0 64 -23 109q-19 37 -69 83q70 58 110.5 136.5t40.5 165.5q0 168 -132 287t-318 119zM450 619q111 0 191 -72t80 -173q0 -100 -79.5 -172
t-191.5 -72q-111 0 -192 72t-81 172q0 101 80 173t193 72z" />
    <glyph glyph-name="R" unicode="R" horiz-adv-x="870" 
d="M0 765v-765h179v585h241q75 0 118 -35q39 -32 39 -78q0 -45 -41 -78.5t-116 -33.5h-149v-181h149q87 0 133 -49t46 -130v-179h181v179q0 118 -16 163q-28 77 -119 108q54 11 96.5 82.5t42.5 156.5q0 108 -72 175q-86 80 -262 80h-450z" />
    <glyph glyph-name="S" unicode="S" horiz-adv-x="589" 
d="M0 179v-179h179q167 0 259 106q73 84 73 183v13q-2 9 -2 13q-15 92 -50 152q-45 77 -129 118q-61 30 -101 90q-34 51 -34 90h-195q0 -104 51 -185q42 -66 128 -130q53 -32 82 -78q26 -42 26 -87q0 -46 -28 -76t-80 -30h-179z" />
    <glyph glyph-name="T" unicode="T" horiz-adv-x="835" 
d="M0 765v-180h284v-585h182v585h285v180h-751z" />
    <glyph glyph-name="U" unicode="U" horiz-adv-x="844" 
d="M749 0v765h-179v-586h-181q-112 0 -150 17q-60 27 -60 119v450h-181v-540q0 -114 100 -175q82 -50 201 -50h450z" />
    <glyph glyph-name="V" unicode="V" horiz-adv-x="1011" 
d="M570 585q66 0 104.5 -21t38.5 -57q0 -14 -5.5 -27.5t-18.5 -29.5l-209 -284l-271 599h-209l330 -765h286l284 404q45 59 45 128q0 96 -79 160q-90 73 -250 73h-225v-180h179z" />
    <glyph glyph-name="W" unicode="W" horiz-adv-x="1547" 
d="M734 120q36 -60 124.5 -100.5t192.5 -40.5t192 42q99 48 166 145q35 51 52.5 106t17.5 107q0 153 -115.5 269.5t-254.5 116.5h-179v-180h149q79 0 131 -66q49 -62 49 -147q0 -56 -24 -100q-27 -49 -79 -75q-26 -13 -52.5 -19.5t-51.5 -6.5q-87 0 -153 70q-58 61 -58 119
v405h-212v-405q0 -57 -58 -119q-66 -70 -153 -70q-29 0 -52 5t-53 21q-52 26 -78 72.5t-26 102.5q0 83 51.5 148t130.5 65h149v180h-180q-139 0 -254.5 -116.5t-115.5 -271.5q0 -53 16.5 -106t52.5 -105q65 -96 166 -144q90 -43 193 -43q104 0 192 40.5t124 100.5z" />
    <glyph glyph-name="X" unicode="X" horiz-adv-x="861" 
d="M0 765v-180q140 0 223 -64q75 -58 75 -142q0 -81 -74 -137q-83 -63 -224 -63v-179q121 0 224 35q116 39 180 114q71 -79 157 -114t219 -35v179q-136 0 -215 64q-72 58 -72 142q0 81 71 137q80 63 216 63v180q-127 0 -224.5 -33.5t-164.5 -102.5q-65 66 -170.5 101
t-220.5 35z" />
    <glyph glyph-name="Y" unicode="Y" horiz-adv-x="994" 
d="M570 585q66 0 104.5 -21t38.5 -57q0 -14 -5.5 -27.5t-18.5 -29.5l-209 -284l-271 599h-209l330 -765h53l-112 -179h238l391 583q45 59 45 128q0 96 -79 160q-90 73 -250 73h-225v-180h179z" />
    <glyph glyph-name="Z" unicode="Z" horiz-adv-x="861" 
d="M0 765v-180h466l-466 -406v-179h780v179h-479l479 406v180h-780z" />
    <glyph glyph-name="bracketleft" unicode="[" horiz-adv-x="371" 
d="M307 -72h-307v903h307v-54h-105v-795h105v-54z" />
    <glyph glyph-name="backslash" unicode="\" horiz-adv-x="616" 
d="M118 765l27 -46l513 -898h-120l-26 46l-513 898h119z" />
    <glyph glyph-name="bracketright" unicode="]" horiz-adv-x="371" 
d="M-1 -72h307v903h-307v-54h105v-795h-105v-54z" />
    <glyph glyph-name="asciicircum" unicode="^" horiz-adv-x="429" 
d="M180 768l-180 -168h360z" />
    <glyph glyph-name="underscore" unicode="_" horiz-adv-x="540" 
d="M0 -175h540v89h-540v-89z" />
    <glyph glyph-name="a" unicode="a" horiz-adv-x="756" 
d="M675 0v583h-345q-157 0 -249 -90q-83 -81 -83 -199q0 -119 84 -203q93 -93 248 -93h90v181h-90q-64 0 -102 35q-34 31 -34 77t35.5 79.5t100.5 33.5h166v-404h179z" />
    <glyph glyph-name="b" unicode="b" horiz-adv-x="747" 
d="M0 767v-765h345q157 0 249 90q83 81 83 199q0 119 -84 203q-93 93 -248 93h-90v-181h90q65 0 102 -35q34 -32 34 -78t-33 -77q-38 -35 -103 -35h-166v586h-179z" />
    <glyph glyph-name="c" unicode="c" horiz-adv-x="553" 
d="M480 404v181h-150q-157 0 -249 -90q-83 -81 -83 -199q0 -119 84 -203q93 -93 248 -93h150v179h-150q-64 0 -102 35q-34 31 -34 77t35.5 79.5t100.5 33.5h150z" />
    <glyph glyph-name="d" unicode="d" horiz-adv-x="747" 
d="M668 767h-181v-586h-164q-64 0 -102 35q-34 31 -34 77t35.5 79.5t100.5 33.5h90v181h-90q-155 0 -248 -93q-84 -84 -84 -203q0 -118 82 -199q91 -90 250 -90h345v765z" />
    <glyph glyph-name="e" unicode="e" horiz-adv-x="756" 
d="M496 404l-122 -149h181l120 149v181h-345q-157 0 -249 -90q-83 -81 -83 -200q0 -120 84 -204q93 -93 248 -93l345 2v179h-345q-64 0 -102 35q-34 31 -34 77t35.5 79.5t100.5 33.5h166z" />
    <glyph glyph-name="f" unicode="f" horiz-adv-x="474" 
d="M404 765h-225q-67 0 -123 -56t-56 -124v-585h179v271h225v179h-225v59q0 35 20.5 55.5t55.5 20.5h149v180z" />
    <glyph glyph-name="g" unicode="g" horiz-adv-x="747" 
d="M675 -46v629h-345q-157 0 -249 -85q-83 -77 -83 -188q0 -113 84 -192q93 -88 248 -88h90v149h-90q-64 0 -102 35q-34 31 -34 77t35.5 79.5t100.5 33.5h166v-404q0 -22 -20 -34t-56 -12h-241v-133h361q76 0 105.5 31.5t29.5 101.5z" />
    <glyph glyph-name="h" unicode="h" horiz-adv-x="721" 
d="M629 0v315q0 132 -68 203q-64 67 -170 67h-212v180h-179v-765h179v404h181q33 0 61.5 -27.5t28.5 -61.5v-315h179z" />
    <glyph glyph-name="i" unicode="i" 
d="M0 765v-123h179v123h-179zM0 583v-583h179v581z" />
    <glyph glyph-name="j" unicode="j" horiz-adv-x="404" 
d="M149 765v-120h181v120h-181zM149 585v-555q0 -31 -20 -40q-13 -6 -53 -6h-76v-163h149q99 0 140 43t41 136v585h-181z" />
    <glyph glyph-name="k" unicode="k" horiz-adv-x="703" 
d="M179 765h-179v-765h179v271h92q87 0 133 -50t46 -131v-90h179v179q0 114 -133 181q74 36 100 63q33 33 33 86v76h-179q0 -58 -39 -93q-46 -42 -140 -42h-92v315z" />
    <glyph glyph-name="l" unicode="l" 
d="M0 765v-765h179v765h-179z" />
    <glyph glyph-name="m" unicode="m" horiz-adv-x="1160" 
d="M629 0v315q0 132 -68 203q-64 67 -170 67h-391v-585h179v404h181q33 0 61.5 -27.5t28.5 -61.5v-315h179zM1075 0v315q0 132 -68 203q-64 67 -170 67h-212v-181h181q33 0 61.5 -27.5t28.5 -61.5v-315h179z" />
    <glyph glyph-name="n" unicode="n" horiz-adv-x="712" 
d="M629 0v315q0 132 -68 203q-64 67 -170 67h-391v-585h179v404h181q33 0 61.5 -27.5t28.5 -61.5v-315h179z" />
    <glyph glyph-name="o" unicode="o" horiz-adv-x="791" 
d="M358 616q-148 0 -253 -95t-105 -229t104 -228t254 -94q148 0 253.5 94.5t105.5 227.5t-105.5 228.5t-253.5 95.5zM358 441q69 0 117.5 -43.5t48.5 -105.5q0 -63 -48.5 -106.5t-117.5 -43.5q-68 0 -117 44t-49 106q0 61 49 105t117 44z" />
    <glyph glyph-name="p" unicode="p" horiz-adv-x="747" 
d="M0 -179h179v583h166q65 0 102 -35q34 -32 34 -78t-33 -77q-38 -35 -103 -35h-90v-179h90q155 0 248 93q84 84 84 203q0 118 -82 199q-91 90 -250 90h-345v-764z" />
    <glyph glyph-name="q" unicode="q" horiz-adv-x="747" 
d="M668 -179v764h-345q-157 0 -249 -90q-83 -81 -83 -199q0 -119 84 -203q93 -93 248 -93h90v179h-90q-64 0 -102 35q-34 31 -34 77t35.5 79.5t100.5 33.5h164v-583h181z" />
    <glyph glyph-name="r" unicode="r" horiz-adv-x="457" 
d="M179 0v315q0 43 26.5 66t65.5 23h120v181h-166q-99 0 -162 -66t-63 -159v-360h179z" />
    <glyph glyph-name="s" unicode="s" horiz-adv-x="577" 
d="M0 0v-179h179q166 0 259 106q73 84 73 182q0 10 -2 26q-15 93 -50 153q-44 76 -129 118q-61 30 -101 90q-34 51 -34 89h-195q0 -104 51 -185q42 -66 128 -129q53 -32 82 -78q26 -42 26 -87q0 -46 -28 -76t-80 -30h-179z" />
    <glyph glyph-name="t" unicode="t" horiz-adv-x="474" 
d="M0 765v-586q0 -69 52 -124t127 -55h225v179h-133q-92 0 -92 92v133h225v181h-225v180h-179z" />
    <glyph glyph-name="u" unicode="u" horiz-adv-x="712" 
d="M0 585v-314q0 -131 69 -203q65 -68 172 -68h388v585h-179v-406h-179q-35 0 -63.5 28.5t-28.5 63.5v314h-179z" />
    <glyph glyph-name="v" unicode="v" horiz-adv-x="778" 
d="M434 404q34 0 52.5 -12t18.5 -33q0 -26 -25 -58l-89 -135l-198 417h-193l271 -583h238l166 255q44 65 44 139q0 81 -54 133q-60 58 -169 58l-181 -2v-179h119z" />
    <glyph glyph-name="w" unicode="w" horiz-adv-x="1256" 
d="M601 94q30 -48 98.5 -80.5t149.5 -32.5q80 0 146 32q75 37 129.5 116.5t54.5 165.5q0 117 -91.5 203.5t-201.5 86.5h-137v-181h105q45 0 79 -35t34 -80q0 -25 -12.5 -48t-38.5 -40q-19 -13 -41 -19.5t-44 -6.5q-58 0 -107 36t-49 73v301h-195v-301q0 -37 -47.5 -74
t-104.5 -37q-23 0 -43.5 6.5t-40.5 21.5q-26 19 -38.5 42t-12.5 49q0 44 33 78t80 34h98v181h-120q-110 0 -200.5 -86.5t-90.5 -204.5q0 -44 12.5 -83.5t42.5 -83.5q52 -76 133 -113q71 -33 156 -33q87 0 160.5 32.5t103.5 80.5z" />
    <glyph glyph-name="x" unicode="x" horiz-adv-x="686" 
d="M0 585v-179q91 0 143 -35q48 -32 48 -79q0 -45 -47 -77q-53 -36 -144 -36v-179q113 0 167 12q86 19 134 78q48 -60 124 -78q51 -12 174 -12v179q-90 0 -140 33.5t-50 79.5t47 78q53 36 143 36v179q-101 0 -175 -20t-123 -69q-50 48 -128 68.5t-173 20.5z" />
    <glyph glyph-name="y" unicode="y" horiz-adv-x="756" 
d="M434 404q34 0 52.5 -12t18.5 -33q0 -26 -25 -58l-89 -135l-198 417h-193l271 -583l40 2l-116 -181h209l271 434q44 65 44 139q0 81 -54 133q-60 58 -169 58l-181 -2v-179h119z" />
    <glyph glyph-name="z" unicode="z" horiz-adv-x="694" 
d="M0 585v-181h301l-301 -225v-179h616v179h-301l301 225v181h-616z" />
    <glyph glyph-name="asciitilde" unicode="~" horiz-adv-x="468" 
d="M378 373l33 -100q-23 -36 -50 -56.5t-63 -20.5q-29 0 -58 12q-9 4 -34.5 18t-45.5 21q-28 10 -57 10q-26 0 -47 -21q-15 -15 -29 -44l-32 100q18 34 41 53q30 25 71 25q21 0 49 -9q20 -6 51 -20q69 -32 92 -32q24 0 45 20q14 14 34 44z" />
    <glyph glyph-name="quoteright" unicode="&#x2019;" 
d="M0 808v-179h76q0 -44 -11.5 -88.5t-34.5 -90.5h105q28 28 38 84q6 35 6 95v179h-179z" />
    <glyph glyph-name="quotedblleft" unicode="&#x201c;" horiz-adv-x="507" 
d="M434 407h-179v179q0 66 5 95q9 54 39 84h105q-23 -46 -34.5 -89.5t-11.5 -89.5h76v-179zM180 407h-179v179q0 66 5 95q9 54 39 84h106q-22 -44 -34 -88.5t-12 -90.5h75v-179z" />
    <glyph glyph-name="quotedblright" unicode="&#x201d;" horiz-adv-x="507" 
d="M0 765v-179h76q0 -44 -11.5 -88.5t-34.5 -90.5h105q28 28 38 84q6 35 6 95v179h-179zM254 765v-179h75q0 -89 -46 -179h106q28 28 38 84q6 35 6 95v179h-179z" />
    <glyph glyph-name="trademark" unicode="&#x2122;" horiz-adv-x="900" 
d="M459 718l106 -273l105 273h100v-371h-65v302l-118 -302h-45l-118 302v-302h-66v371h101zM293 718v-54h-114v-317h-66v317h-114v54h294z" />
    <glyph glyph-name="nonbreakingspace" unicode="&#xa0;" horiz-adv-x="450" 
 />
    <glyph glyph-name="cent" unicode="&#xa2;" horiz-adv-x="571" 
d="M480 404v181h-150v136h-151v-151q-88 -34 -135.5 -107.5t-47.5 -159.5q0 -87 46 -159q50 -78 137 -114v-165h151l-2 135h152v179h-150q-64 0 -102 35q-34 31 -34 77t35.5 79.5t100.5 33.5h150z" />
    <glyph glyph-name="sterling" unicode="&#xa3;" horiz-adv-x="686" 
d="M0 0h599v179h-328v181h238v90h-238q0 80 27.5 107.5t105.5 27.5h195v180h-225q-114 0 -199 -70t-85 -169v-76h-90v-90h90v-181h-90v-179z" />
    <glyph glyph-name="copyright" unicode="&#xa9;" horiz-adv-x="626" 
d="M277 87q-114 0 -195 78t-81 195t80.5 194.5t195.5 77.5q113 0 194 -78t81 -194q0 -118 -80.5 -195.5t-194.5 -77.5zM55 360q0 -98 64 -163t158 -65q93 0 157 65t64 163q0 96 -64 161t-157 65q-95 0 -158.5 -64.5t-63.5 -161.5zM372 309h48q-10 -54 -46 -85t-88 -31
q-73 0 -116.5 47.5t-43.5 120.5q0 74 42 120t115 46q55 0 92 -29.5t44 -83.5h-47q-7 30 -30.5 48t-57.5 18q-49 0 -76 -32.5t-27 -85.5q0 -51 28.5 -86.5t76.5 -35.5q34 0 57 19t29 50z" />
    <glyph glyph-name="logicalnot" unicode="&#xac;" horiz-adv-x="802" 
d="M650 0h-651v651h651v-651zM601 49v553h-553v-553h553z" />
    <glyph glyph-name="registered" unicode="&#xae;" horiz-adv-x="637" 
d="M277 96q-114 0 -195 78t-81 195q0 116 81 194t195 78t195 -77.5t81 -194.5t-81 -195t-195 -78zM56 369q0 -97 63.5 -162.5t157.5 -65.5q93 0 157 65t64 163q0 96 -64 161t-157 65q-94 0 -157.5 -64.5t-63.5 -161.5zM220 347v-136h-48v315h120q110 0 110 -90
q0 -40 -22 -61t-59 -25l89 -139h-53l-83 136h-54zM220 388h56q39 0 54 7q23 11 23 44q0 26 -19.5 36t-49.5 10h-64v-97z" />
    <glyph glyph-name="periodcentered" unicode="&#xb7;" horiz-adv-x="193" 
d="M76 409q-32 0 -55 -22t-23 -54q0 -33 23 -55t55 -22q31 0 54 22t23 55q0 32 -22 54t-55 22z" />
    <glyph glyph-name="periodcentered" unicode="&#x2219;" horiz-adv-x="193" 
d="M76 409q-32 0 -55 -22t-23 -54q0 -33 23 -55t55 -22q31 0 54 22t23 55q0 32 -22 54t-55 22z" />
    <glyph glyph-name="Agrave" unicode="&#xc0;" horiz-adv-x="808" 
d="M271 480v-179h299v-480h181v46v898h-181v-285h-299zM179 0v765h-179v-765h179z" />
    <glyph glyph-name="Aacute" unicode="&#xc1;" horiz-adv-x="967" 
d="M450 780q-187 0 -318.5 -118.5t-131.5 -285.5q0 -143 103 -255t257 -142v-158h180v160q154 29 257 140t103 255q0 168 -132 286t-318 118zM450 620q112 0 191.5 -71.5t79.5 -172.5t-79.5 -173t-191.5 -72q-111 0 -192 72t-81 173q0 102 80 173t193 71z" />
    <glyph glyph-name="ydieresis" unicode="&#xff;" horiz-adv-x="976" 
d="M535 348h5q-11 -17 -32.5 -29.5l-41.5 -23.5q-9 -2 -23.5 -9t-18.5 -8q7 18 48 41q34 19 39 22h11zM540 399q-3 -3 -9 -4q-31 0 -58 -13l-81 -46q-35 -25 -46 -36q-23 -22 -30 -45.5t-12 -46t-5 -42.5q4 -24 14 -40.5t30 -25.5q22 -14 52 -14q31 0 62 14l39 27
q25 17 39 35h-11l-13 4v13q-24 2 -48 -10q-73 -37 -76 -38q-6 4 -9.5 10t-4.5 8l5 63q5 5 12 5q4 0 13 -3t14 -3q44 14 78 31q21 11 69 40q1 1 25 18q17 12 21 23q7 10 7 23t-8.5 24t-21.5 17zM313 693q-2 0 -11 -7q-3 -41 -6.5 -83.5t-15.5 -84.5q-8 -10 -14.5 -36
t-12.5 -39q-12 -7 -32 -9t-40 -2q-19 -4 -42 -4q-24 0 -44 2q-69 7 -74 7l-16 -5l11 -28q11 -9 21 -9l12 -8h185l-22 -79l-11 -37q-9 -5 -14 -24l-11 -40.5t-35 -95.5q-23 -62 -23 -102q14 -3 26 -3q18 0 28 7l134 382q14 10 37.5 16.5t48.5 10.5q8 5 39 14t40 21
q-3 8 -13 14.5t-13 11.5q-18 1 -27 1q-14 0 -26 -8q-11 -2 -21 -5q-26 -9 -33 -9t-11 1l-6 5q7 18 16 49.5t17 72.5l4 27t2 25q0 11 -4 25.5t-17 20t-26 5.5zM805 721q-5 0 -10 -4.5t-8 -6.5l-20 -109q-15 -18 -28 -56l-13 -37q-5 -23 -22 -54q-23 -42 -27 -52
q-8 -8 -16 -28q-21 -52 -23 -55q4 -4 4 -15q-3 0 -17 -9l-17 -39.5t-21 -43.5l-3.5 -21t-1.5 -18q0 -13 5 -22l49 -20q25 13 46 38q10 12 35 49l43 40l3 -5q0 -61 9.5 -112t35.5 -86q4 -4 12.5 -6.5l15.5 -4.5t12 -2q28 0 41 25q-1 8 -8.5 16l-10.5 11l-25 15q-18 34 -18 78
q0 10 1 15v176q-10 6 -23 11.5t-21 5.5q-11 0 -17 -6q-13 -29 -31 -53q-10 -13 -37 -44l-10 -21q-5 0 -7 5l153 348q7 17 11.5 29t4.5 25q0 7 -1 11l-8 14z" />
    </font>
</defs>
</svg>
